<?xml version="1.0" encoding="UTF-8" standalone="no"?>
<!DOCTYPE svg PUBLIC "-//W3C//DTD SVG 1.1//EN"
 "http://www.w3.org/Graphics/SVG/1.1/DTD/svg11.dtd">
<!-- Generated by graphviz version 2.40.1 (20161225.0304)
 -->
<!-- Title: workflow Pages: 1 -->
<svg width="734pt" height="741pt"
 viewBox="0.00 0.00 733.96 741.20" xmlns="http://www.w3.org/2000/svg" xmlns:xlink="http://www.w3.org/1999/xlink">
<g id="graph0" class="graph" transform="scale(1 1) rotate(0) translate(25.2 716)">
<title>workflow</title>
<polygon fill="#ffffff" stroke="transparent" points="-25.2,25.2 -25.2,-716 708.7624,-716 708.7624,25.2 -25.2,25.2"/>
<!-- raw -->
<g id="node1" class="node">
<title>raw</title>
<path fill="#f4f6f8" stroke="#2f3a45" d="M420.6912,-691.0013C420.6912,-691.0013 242.6304,-691.0013 242.6304,-691.0013 236.6304,-691.0013 230.6304,-685.0013 230.6304,-679.0013 230.6304,-679.0013 230.6304,-638.1988 230.6304,-638.1988 230.6304,-632.1988 236.6304,-626.1988 242.6304,-626.1988 242.6304,-626.1988 420.6912,-626.1988 420.6912,-626.1988 426.6912,-626.1988 432.6912,-632.1988 432.6912,-638.1988 432.6912,-638.1988 432.6912,-679.0013 432.6912,-679.0013 432.6912,-685.0013 426.6912,-691.0013 420.6912,-691.0013"/>
<text text-anchor="middle" x="331.6608" y="-663.4" font-family="Helvetica,sans-Serif" font-size="16.00" fill="#000000">Raw literature&#45;derived</text>
<text text-anchor="middle" x="331.6608" y="-644.2" font-family="Helvetica,sans-Serif" font-size="16.00" fill="#000000">skin permeability dataset</text>
</g>
<!-- clean -->
<g id="node2" class="node">
<title>clean</title>
<path fill="#f4f6f8" stroke="#2f3a45" d="M455.1557,-586.6013C455.1557,-586.6013 208.1659,-586.6013 208.1659,-586.6013 202.1659,-586.6013 196.1659,-580.6013 196.1659,-574.6013 196.1659,-574.6013 196.1659,-533.7988 196.1659,-533.7988 196.1659,-527.7988 202.1659,-521.7988 208.1659,-521.7988 208.1659,-521.7988 455.1557,-521.7988 455.1557,-521.7988 461.1557,-521.7988 467.1557,-527.7988 467.1557,-533.7988 467.1557,-533.7988 467.1557,-574.6013 467.1557,-574.6013 467.1557,-580.6013 461.1557,-586.6013 455.1557,-586.6013"/>
<text text-anchor="middle" x="331.6608" y="-559" font-family="Helvetica,sans-Serif" font-size="16.00" fill="#000000">Data cleaning and</text>
<text text-anchor="middle" x="331.6608" y="-539.8" font-family="Helvetica,sans-Serif" font-size="16.00" fill="#000000">compound identifier harmonization</text>
</g>
<!-- raw&#45;&gt;clean -->
<g id="edge1" class="edge">
<title>raw&#45;&gt;clean</title>
<path fill="none" stroke="#2f3a45" stroke-width="1.4" d="M331.6608,-626.1395C331.6608,-615.9263 331.6608,-604.5309 331.6608,-593.8755"/>
<polygon fill="#2f3a45" stroke="#2f3a45" stroke-width="1.4" points="334.1109,-593.6404 331.6608,-586.6405 329.2109,-593.6405 334.1109,-593.6404"/>
</g>
<!-- descriptor -->
<g id="node3" class="node">
<title>descriptor</title>
<path fill="#f4f6f8" stroke="#2f3a45" d="M421.4689,-482.2013C421.4689,-482.2013 241.8527,-482.2013 241.8527,-482.2013 235.8527,-482.2013 229.8527,-476.2013 229.8527,-470.2013 229.8527,-470.2013 229.8527,-429.3988 229.8527,-429.3988 229.8527,-423.3988 235.8527,-417.3988 241.8527,-417.3988 241.8527,-417.3988 421.4689,-417.3988 421.4689,-417.3988 427.4689,-417.3988 433.4689,-423.3988 433.4689,-429.3988 433.4689,-429.3988 433.4689,-470.2013 433.4689,-470.2013 433.4689,-476.2013 427.4689,-482.2013 421.4689,-482.2013"/>
<text text-anchor="middle" x="331.6608" y="-454.6" font-family="Helvetica,sans-Serif" font-size="16.00" fill="#000000">Descriptor screening and</text>
<text text-anchor="middle" x="331.6608" y="-435.4" font-family="Helvetica,sans-Serif" font-size="16.00" fill="#000000">redundancy analysis</text>
</g>
<!-- clean&#45;&gt;descriptor -->
<g id="edge2" class="edge">
<title>clean&#45;&gt;descriptor</title>
<path fill="none" stroke="#2f3a45" stroke-width="1.4" d="M331.6608,-521.7395C331.6608,-511.5263 331.6608,-500.1309 331.6608,-489.4755"/>
<polygon fill="#2f3a45" stroke="#2f3a45" stroke-width="1.4" points="334.1109,-489.2404 331.6608,-482.2405 329.2109,-489.2405 334.1109,-489.2404"/>
</g>
<!-- loco -->
<g id="node4" class="node">
<title>loco</title>
<path fill="#f4f6f8" stroke="#2f3a45" d="M424.3289,-377.8013C424.3289,-377.8013 238.9927,-377.8013 238.9927,-377.8013 232.9927,-377.8013 226.9927,-371.8013 226.9927,-365.8013 226.9927,-365.8013 226.9927,-324.9988 226.9927,-324.9988 226.9927,-318.9988 232.9927,-312.9988 238.9927,-312.9988 238.9927,-312.9988 424.3289,-312.9988 424.3289,-312.9988 430.3289,-312.9988 436.3289,-318.9988 436.3289,-324.9988 436.3289,-324.9988 436.3289,-365.8013 436.3289,-365.8013 436.3289,-371.8013 430.3289,-377.8013 424.3289,-377.8013"/>
<text text-anchor="middle" x="331.6608" y="-350.2" font-family="Helvetica,sans-Serif" font-size="16.00" fill="#000000">Leave&#45;one&#45;compound&#45;out</text>
<text text-anchor="middle" x="331.6608" y="-331" font-family="Helvetica,sans-Serif" font-size="16.00" fill="#000000">candidate model search</text>
</g>
<!-- descriptor&#45;&gt;loco -->
<g id="edge3" class="edge">
<title>descriptor&#45;&gt;loco</title>
<path fill="none" stroke="#2f3a45" stroke-width="1.4" d="M331.6608,-417.3395C331.6608,-407.1263 331.6608,-395.7309 331.6608,-385.0755"/>
<polygon fill="#2f3a45" stroke="#2f3a45" stroke-width="1.4" points="334.1109,-384.8404 331.6608,-377.8405 329.2109,-384.8405 334.1109,-384.8404"/>
</g>
<!-- selected -->
<g id="node5" class="node">
<title>selected</title>
<path fill="#e8f0fe" stroke="#2f3a45" d="M410.2596,-273.4013C410.2596,-273.4013 253.062,-273.4013 253.062,-273.4013 247.062,-273.4013 241.062,-267.4013 241.062,-261.4013 241.062,-261.4013 241.062,-220.5988 241.062,-220.5988 241.062,-214.5988 247.062,-208.5988 253.062,-208.5988 253.062,-208.5988 410.2596,-208.5988 410.2596,-208.5988 416.2596,-208.5988 422.2596,-214.5988 422.2596,-220.5988 422.2596,-220.5988 422.2596,-261.4013 422.2596,-261.4013 422.2596,-267.4013 416.2596,-273.4013 410.2596,-273.4013"/>
<text text-anchor="middle" x="331.6608" y="-245.8" font-family="Helvetica,sans-Serif" font-size="16.00" fill="#000000">Selected interpretable</text>
<text text-anchor="middle" x="331.6608" y="-226.6" font-family="Helvetica,sans-Serif" font-size="16.00" fill="#000000">QSPR model</text>
</g>
<!-- loco&#45;&gt;selected -->
<g id="edge4" class="edge">
<title>loco&#45;&gt;selected</title>
<path fill="none" stroke="#2f3a45" stroke-width="1.4" d="M331.6608,-312.9395C331.6608,-302.7263 331.6608,-291.3309 331.6608,-280.6755"/>
<polygon fill="#2f3a45" stroke="#2f3a45" stroke-width="1.4" points="334.1109,-280.4404 331.6608,-273.4405 329.2109,-280.4405 334.1109,-280.4404"/>
</g>
<!-- benchmarks -->
<g id="node6" class="node">
<title>benchmarks</title>
<path fill="#f4f6f8" stroke="#2f3a45" d="M203.4826,-169.0013C203.4826,-169.0013 11.839,-169.0013 11.839,-169.0013 5.839,-169.0013 -.161,-163.0013 -.161,-157.0013 -.161,-157.0013 -.161,-116.1988 -.161,-116.1988 -.161,-110.1988 5.839,-104.1988 11.839,-104.1988 11.839,-104.1988 203.4826,-104.1988 203.4826,-104.1988 209.4826,-104.1988 215.4826,-110.1988 215.4826,-116.1988 215.4826,-116.1988 215.4826,-157.0013 215.4826,-157.0013 215.4826,-163.0013 209.4826,-169.0013 203.4826,-169.0013"/>
<text text-anchor="middle" x="107.6608" y="-141.4" font-family="Helvetica,sans-Serif" font-size="16.00" fill="#000000">Benchmark comparison</text>
<text text-anchor="middle" x="107.6608" y="-122.2" font-family="Helvetica,sans-Serif" font-size="16.00" fill="#000000">classical, linear, RF, RDKit</text>
</g>
<!-- selected&#45;&gt;benchmarks -->
<g id="edge5" class="edge">
<title>selected&#45;&gt;benchmarks</title>
<path fill="none" stroke="#2f3a45" stroke-width="1.4" d="M262.3198,-208.6822C237.3267,-197.0336 209.0014,-183.832 183.4832,-171.9387"/>
<polygon fill="#2f3a45" stroke="#2f3a45" stroke-width="1.4" points="184.4395,-169.6814 177.0597,-168.9449 182.3695,-174.1227 184.4395,-169.6814"/>
</g>
<!-- domain -->
<g id="node7" class="node">
<title>domain</title>
<path fill="#f4f6f8" stroke="#2f3a45" d="M403.8882,-169.0013C403.8882,-169.0013 259.4334,-169.0013 259.4334,-169.0013 253.4334,-169.0013 247.4334,-163.0013 247.4334,-157.0013 247.4334,-157.0013 247.4334,-116.1988 247.4334,-116.1988 247.4334,-110.1988 253.4334,-104.1988 259.4334,-104.1988 259.4334,-104.1988 403.8882,-104.1988 403.8882,-104.1988 409.8882,-104.1988 415.8882,-110.1988 415.8882,-116.1988 415.8882,-116.1988 415.8882,-157.0013 415.8882,-157.0013 415.8882,-163.0013 409.8882,-169.0013 403.8882,-169.0013"/>
<text text-anchor="middle" x="331.6608" y="-141.4" font-family="Helvetica,sans-Serif" font-size="16.00" fill="#000000">Applicability&#45;domain</text>
<text text-anchor="middle" x="331.6608" y="-122.2" font-family="Helvetica,sans-Serif" font-size="16.00" fill="#000000">analysis</text>
</g>
<!-- selected&#45;&gt;domain -->
<g id="edge6" class="edge">
<title>selected&#45;&gt;domain</title>
<path fill="none" stroke="#2f3a45" stroke-width="1.4" d="M331.6608,-208.5395C331.6608,-198.3263 331.6608,-186.9309 331.6608,-176.2755"/>
<polygon fill="#2f3a45" stroke="#2f3a45" stroke-width="1.4" points="334.1109,-176.0404 331.6608,-169.0405 329.2109,-176.0405 334.1109,-176.0404"/>
</g>
<!-- sensitivity -->
<g id="node8" class="node">
<title>sensitivity</title>
<path fill="#f4f6f8" stroke="#2f3a45" d="M671.4641,-169.0013C671.4641,-169.0013 459.8575,-169.0013 459.8575,-169.0013 453.8575,-169.0013 447.8575,-163.0013 447.8575,-157.0013 447.8575,-157.0013 447.8575,-116.1988 447.8575,-116.1988 447.8575,-110.1988 453.8575,-104.1988 459.8575,-104.1988 459.8575,-104.1988 671.4641,-104.1988 671.4641,-104.1988 677.4641,-104.1988 683.4641,-110.1988 683.4641,-116.1988 683.4641,-116.1988 683.4641,-157.0013 683.4641,-157.0013 683.4641,-163.0013 677.4641,-169.0013 671.4641,-169.0013"/>
<text text-anchor="middle" x="565.6608" y="-141.4" font-family="Helvetica,sans-Serif" font-size="16.00" fill="#000000">Ablation and</text>
<text text-anchor="middle" x="565.6608" y="-122.2" font-family="Helvetica,sans-Serif" font-size="16.00" fill="#000000">validation&#45;sensitivity analyses</text>
</g>
<!-- selected&#45;&gt;sensitivity -->
<g id="edge7" class="edge">
<title>selected&#45;&gt;sensitivity</title>
<path fill="none" stroke="#2f3a45" stroke-width="1.4" d="M404.0974,-208.6822C430.2063,-197.0336 459.7961,-183.832 486.4535,-171.9387"/>
<polygon fill="#2f3a45" stroke="#2f3a45" stroke-width="1.4" points="487.7693,-174.0344 493.1637,-168.9449 485.7728,-169.5596 487.7693,-174.0344"/>
</g>
<!-- outputs -->
<g id="node9" class="node">
<title>outputs</title>
<path fill="#eaf7ea" stroke="#2f3a45" d="M395.9234,-64.6013C395.9234,-64.6013 267.3982,-64.6013 267.3982,-64.6013 261.3982,-64.6013 255.3982,-58.6013 255.3982,-52.6013 255.3982,-52.6013 255.3982,-11.7987 255.3982,-11.7987 255.3982,-5.7987 261.3982,.2013 267.3982,.2013 267.3982,.2013 395.9234,.2013 395.9234,.2013 401.9234,.2013 407.9234,-5.7987 407.9234,-11.7987 407.9234,-11.7987 407.9234,-52.6013 407.9234,-52.6013 407.9234,-58.6013 401.9234,-64.6013 395.9234,-64.6013"/>
<text text-anchor="middle" x="331.6608" y="-37" font-family="Helvetica,sans-Serif" font-size="16.00" fill="#000000">Manuscript&#45;ready</text>
<text text-anchor="middle" x="331.6608" y="-17.8" font-family="Helvetica,sans-Serif" font-size="16.00" fill="#000000">tables and figures</text>
</g>
<!-- benchmarks&#45;&gt;outputs -->
<g id="edge8" class="edge">
<title>benchmarks&#45;&gt;outputs</title>
<path fill="none" stroke="#2f3a45" stroke-width="1.4" d="M177.0018,-104.2822C201.9949,-92.6336 230.3202,-79.432 255.8384,-67.5387"/>
<polygon fill="#2f3a45" stroke="#2f3a45" stroke-width="1.4" points="256.9521,-69.7227 262.2619,-64.5449 254.8821,-65.2814 256.9521,-69.7227"/>
</g>
<!-- domain&#45;&gt;outputs -->
<g id="edge9" class="edge">
<title>domain&#45;&gt;outputs</title>
<path fill="none" stroke="#2f3a45" stroke-width="1.4" d="M331.6608,-104.1395C331.6608,-93.9263 331.6608,-82.5309 331.6608,-71.8755"/>
<polygon fill="#2f3a45" stroke="#2f3a45" stroke-width="1.4" points="334.1109,-71.6404 331.6608,-64.6405 329.2109,-71.6405 334.1109,-71.6404"/>
</g>
<!-- sensitivity&#45;&gt;outputs -->
<g id="edge10" class="edge">
<title>sensitivity&#45;&gt;outputs</title>
<path fill="none" stroke="#2f3a45" stroke-width="1.4" d="M493.2242,-104.2822C467.1153,-92.6336 437.5255,-79.432 410.8681,-67.5387"/>
<polygon fill="#2f3a45" stroke="#2f3a45" stroke-width="1.4" points="411.5488,-65.1596 404.1579,-64.5449 409.5523,-69.6344 411.5488,-65.1596"/>
</g>
</g>
</svg>

