<?xml version="1.0" encoding="UTF-8" standalone="no"?>
<!DOCTYPE svg PUBLIC "-//W3C//DTD SVG 1.1//EN"
 "http://www.w3.org/Graphics/SVG/1.1/DTD/svg11.dtd">
<!-- Generated by graphviz version 2.40.1 (20161225.0304)
 -->
<!-- Title: workflow Pages: 1 -->
<svg width="941pt" height="805pt"
 viewBox="0.00 0.00 941.04 805.20" xmlns="http://www.w3.org/2000/svg" xmlns:xlink="http://www.w3.org/1999/xlink">
<g id="graph0" class="graph" transform="scale(1 1) rotate(0) translate(18 787.2)">
<title>workflow</title>
<polygon fill="#ffffff" stroke="transparent" points="-18,18 -18,-787.2 923.0366,-787.2 923.0366,18 -18,18"/>
<!-- curate_label -->
<g id="node1" class="node">
<title>curate_label</title>
<path fill="#dceaf7" stroke="#2f3a45" stroke-width="1.2" d="M146.4765,-441.4017C146.4765,-441.4017 52.4808,-441.4017 52.4808,-441.4017 46.4808,-441.4017 40.4808,-435.4017 40.4808,-429.4017 40.4808,-429.4017 40.4808,-408.1983 40.4808,-408.1983 40.4808,-402.1983 46.4808,-396.1983 52.4808,-396.1983 52.4808,-396.1983 146.4765,-396.1983 146.4765,-396.1983 152.4765,-396.1983 158.4765,-402.1983 158.4765,-408.1983 158.4765,-408.1983 158.4765,-429.4017 158.4765,-429.4017 158.4765,-435.4017 152.4765,-441.4017 146.4765,-441.4017"/>
<text text-anchor="middle" x="99.4787" y="-413.4" font-family="Helvetica,sans-Serif" font-weight="bold" font-size="18.00" fill="#2f3a45">1. CURATE</text>
</g>
<!-- model_label -->
<g id="node2" class="node">
<title>model_label</title>
<path fill="#e5e2fa" stroke="#2f3a45" stroke-width="1.2" d="M378.6418,-251.4017C378.6418,-251.4017 294.6226,-251.4017 294.6226,-251.4017 288.6226,-251.4017 282.6226,-245.4017 282.6226,-239.4017 282.6226,-239.4017 282.6226,-218.1983 282.6226,-218.1983 282.6226,-212.1983 288.6226,-206.1983 294.6226,-206.1983 294.6226,-206.1983 378.6418,-206.1983 378.6418,-206.1983 384.6418,-206.1983 390.6418,-212.1983 390.6418,-218.1983 390.6418,-218.1983 390.6418,-239.4017 390.6418,-239.4017 390.6418,-245.4017 384.6418,-251.4017 378.6418,-251.4017"/>
<text text-anchor="middle" x="336.6322" y="-223.4" font-family="Helvetica,sans-Serif" font-weight="bold" font-size="18.00" fill="#2f3a45">2. MODEL</text>
</g>
<!-- audit_label -->
<g id="node3" class="node">
<title>audit_label</title>
<path fill="#fff0cc" stroke="#2f3a45" stroke-width="1.2" d="M602.4901,-45.4017C602.4901,-45.4017 528.4869,-45.4017 528.4869,-45.4017 522.4869,-45.4017 516.4869,-39.4017 516.4869,-33.4017 516.4869,-33.4017 516.4869,-12.1983 516.4869,-12.1983 516.4869,-6.1983 522.4869,-.1983 528.4869,-.1983 528.4869,-.1983 602.4901,-.1983 602.4901,-.1983 608.4901,-.1983 614.4901,-6.1983 614.4901,-12.1983 614.4901,-12.1983 614.4901,-33.4017 614.4901,-33.4017 614.4901,-39.4017 608.4901,-45.4017 602.4901,-45.4017"/>
<text text-anchor="middle" x="565.4885" y="-17.4" font-family="Helvetica,sans-Serif" font-weight="bold" font-size="18.00" fill="#2f3a45">3. AUDIT</text>
</g>
<!-- output_label -->
<g id="node4" class="node">
<title>output_label</title>
<path fill="#ddf2e3" stroke="#2f3a45" stroke-width="1.2" d="M847.8511,-243.4017C847.8511,-243.4017 753.8554,-243.4017 753.8554,-243.4017 747.8554,-243.4017 741.8554,-237.4017 741.8554,-231.4017 741.8554,-231.4017 741.8554,-210.1983 741.8554,-210.1983 741.8554,-204.1983 747.8554,-198.1983 753.8554,-198.1983 753.8554,-198.1983 847.8511,-198.1983 847.8511,-198.1983 853.8511,-198.1983 859.8511,-204.1983 859.8511,-210.1983 859.8511,-210.1983 859.8511,-231.4017 859.8511,-231.4017 859.8511,-237.4017 853.8511,-243.4017 847.8511,-243.4017"/>
<text text-anchor="middle" x="800.8532" y="-215.4" font-family="Helvetica,sans-Serif" font-weight="bold" font-size="18.00" fill="#2f3a45">4. OUTPUT</text>
</g>
<!-- data -->
<g id="node5" class="node">
<title>data</title>
<path fill="#eaf1f8" stroke="#2f3a45" stroke-width="1.2" d="M172.2212,-769.1003C172.2212,-769.1003 26.7361,-769.1003 26.7361,-769.1003 20.7361,-769.1003 14.7361,-763.1003 14.7361,-757.1003 14.7361,-757.1003 14.7361,-712.4997 14.7361,-712.4997 14.7361,-706.4997 20.7361,-700.4997 26.7361,-700.4997 26.7361,-700.4997 172.2212,-700.4997 172.2212,-700.4997 178.2212,-700.4997 184.2212,-706.4997 184.2212,-712.4997 184.2212,-712.4997 184.2212,-757.1003 184.2212,-757.1003 184.2212,-763.1003 178.2212,-769.1003 172.2212,-769.1003"/>
<text text-anchor="middle" x="99.4787" y="-746.5" font-family="Helvetica,sans-Serif" font-size="13.00" fill="#000000">Curated human skin</text>
<text text-anchor="middle" x="99.4787" y="-730.9" font-family="Helvetica,sans-Serif" font-size="13.00" fill="#000000">permeability data</text>
<text text-anchor="middle" x="99.4787" y="-715.3" font-family="Helvetica,sans-Serif" font-size="13.00" fill="#000000">Kp endpoint + descriptors</text>
</g>
<!-- clean -->
<g id="node6" class="node">
<title>clean</title>
<path fill="#eaf1f8" stroke="#2f3a45" stroke-width="1.2" d="M186.936,-670.201C186.936,-670.201 12.0213,-670.201 12.0213,-670.201 6.0213,-670.201 .0213,-664.201 .0213,-658.201 .0213,-658.201 .0213,-597.399 .0213,-597.399 .0213,-591.399 6.0213,-585.399 12.0213,-585.399 12.0213,-585.399 186.936,-585.399 186.936,-585.399 192.936,-585.399 198.936,-591.399 198.936,-597.399 198.936,-597.399 198.936,-658.201 198.936,-658.201 198.936,-664.201 192.936,-670.201 186.936,-670.201"/>
<text text-anchor="middle" x="99.4787" y="-647.3" font-family="Helvetica,sans-Serif" font-size="13.00" fill="#000000">Curation and</text>
<text text-anchor="middle" x="99.4787" y="-631.7" font-family="Helvetica,sans-Serif" font-size="13.00" fill="#000000">harmonization</text>
<text text-anchor="middle" x="99.4787" y="-616.1" font-family="Helvetica,sans-Serif" font-size="13.00" fill="#000000">CAS identifiers, numeric fields,</text>
<text text-anchor="middle" x="99.4787" y="-600.5" font-family="Helvetica,sans-Serif" font-size="13.00" fill="#000000">endpoint completeness</text>
</g>
<!-- data&#45;&gt;clean -->
<g id="edge1" class="edge">
<title>data&#45;&gt;clean</title>
<path fill="none" stroke="#2f3a45" stroke-width="1.2" d="M100.0366,-700.3556C100.0366,-700.3556 100.0366,-676.5484 100.0366,-676.5484"/>
<polygon fill="#2f3a45" stroke="#2f3a45" stroke-width="1.2" points="102.3117,-676.5484 100.0366,-670.0484 97.7617,-676.5485 102.3117,-676.5484"/>
</g>
<!-- attrition -->
<g id="node7" class="node">
<title>attrition</title>
<path fill="#eaf1f8" stroke="#2f3a45" stroke-width="1.5" d="M172.5877,-556.201C172.5877,-556.201 26.3696,-556.201 26.3696,-556.201 20.3696,-556.201 14.3696,-550.201 14.3696,-544.201 14.3696,-544.201 14.3696,-483.399 14.3696,-483.399 14.3696,-477.399 20.3696,-471.399 26.3696,-471.399 26.3696,-471.399 172.5877,-471.399 172.5877,-471.399 178.5877,-471.399 184.5877,-477.399 184.5877,-483.399 184.5877,-483.399 184.5877,-544.201 184.5877,-544.201 184.5877,-550.201 178.5877,-556.201 172.5877,-556.201"/>
<text text-anchor="middle" x="99.4787" y="-533.3" font-family="Helvetica,sans-Serif" font-size="13.00" fill="#000000">Modeling dataset</text>
<text text-anchor="middle" x="99.4787" y="-517.7" font-family="Helvetica,sans-Serif" font-size="13.00" fill="#000000">479 raw observations</text>
<text text-anchor="middle" x="99.4787" y="-502.1" font-family="Helvetica,sans-Serif" font-size="13.00" fill="#000000">321 cleaned observations</text>
<text text-anchor="middle" x="99.4787" y="-486.5" font-family="Helvetica,sans-Serif" font-size="13.00" fill="#000000">140 unique compounds</text>
</g>
<!-- clean&#45;&gt;attrition -->
<g id="edge2" class="edge">
<title>clean&#45;&gt;attrition</title>
<path fill="none" stroke="#2f3a45" stroke-width="1.2" d="M100.0366,-585.3506C100.0366,-585.3506 100.0366,-562.7848 100.0366,-562.7848"/>
<polygon fill="#2f3a45" stroke="#2f3a45" stroke-width="1.2" points="102.3117,-562.7848 100.0366,-556.2848 97.7617,-562.7849 102.3117,-562.7848"/>
</g>
<!-- descriptor -->
<g id="node8" class="node">
<title>descriptor</title>
<path fill="#ecebff" stroke="#2f3a45" stroke-width="1.2" d="M422.4823,-548.1003C422.4823,-548.1003 250.7821,-548.1003 250.7821,-548.1003 244.7821,-548.1003 238.7821,-542.1003 238.7821,-536.1003 238.7821,-536.1003 238.7821,-491.4997 238.7821,-491.4997 238.7821,-485.4997 244.7821,-479.4997 250.7821,-479.4997 250.7821,-479.4997 422.4823,-479.4997 422.4823,-479.4997 428.4823,-479.4997 434.4823,-485.4997 434.4823,-491.4997 434.4823,-491.4997 434.4823,-536.1003 434.4823,-536.1003 434.4823,-542.1003 428.4823,-548.1003 422.4823,-548.1003"/>
<text text-anchor="middle" x="336.6322" y="-525.5" font-family="Helvetica,sans-Serif" font-size="13.00" fill="#000000">Descriptor audit</text>
<text text-anchor="middle" x="336.6322" y="-509.9" font-family="Helvetica,sans-Serif" font-size="13.00" fill="#000000">redundancy screening</text>
<text text-anchor="middle" x="336.6322" y="-494.3" font-family="Helvetica,sans-Serif" font-size="13.00" fill="#000000">GSE&#45;informed solubility check</text>
</g>
<!-- attrition&#45;&gt;descriptor -->
<g id="edge3" class="edge">
<title>attrition&#45;&gt;descriptor</title>
<path fill="none" stroke="#2f3a45" stroke-width="1.2" d="M184.7615,-513.8C184.7615,-513.8 232.3063,-513.8 232.3063,-513.8"/>
<polygon fill="#2f3a45" stroke="#2f3a45" stroke-width="1.2" points="232.3063,-516.0751 238.8063,-513.8 232.3062,-511.5251 232.3063,-516.0751"/>
</g>
<!-- loco -->
<g id="node9" class="node">
<title>loco</title>
<path fill="#ecebff" stroke="#2f3a45" stroke-width="1.2" d="M410.8838,-449.201C410.8838,-449.201 262.3806,-449.201 262.3806,-449.201 256.3806,-449.201 250.3806,-443.201 250.3806,-437.201 250.3806,-437.201 250.3806,-376.399 250.3806,-376.399 250.3806,-370.399 256.3806,-364.399 262.3806,-364.399 262.3806,-364.399 410.8838,-364.399 410.8838,-364.399 416.8838,-364.399 422.8838,-370.399 422.8838,-376.399 422.8838,-376.399 422.8838,-437.201 422.8838,-437.201 422.8838,-443.201 416.8838,-449.201 410.8838,-449.201"/>
<text text-anchor="middle" x="336.6322" y="-426.3" font-family="Helvetica,sans-Serif" font-size="13.00" fill="#000000">LOCO&#45;CV formula search</text>
<text text-anchor="middle" x="336.6322" y="-410.7" font-family="Helvetica,sans-Serif" font-size="13.00" fill="#000000">compound&#45;level validation</text>
<text text-anchor="middle" x="336.6322" y="-395.1" font-family="Helvetica,sans-Serif" font-size="13.00" fill="#000000">quadratic, log, and</text>
<text text-anchor="middle" x="336.6322" y="-379.5" font-family="Helvetica,sans-Serif" font-size="13.00" fill="#000000">interaction terms</text>
</g>
<!-- descriptor&#45;&gt;loco -->
<g id="edge4" class="edge">
<title>descriptor&#45;&gt;loco</title>
<path fill="none" stroke="#2f3a45" stroke-width="1.2" d="M337.0366,-479.3556C337.0366,-479.3556 337.0366,-455.5484 337.0366,-455.5484"/>
<polygon fill="#2f3a45" stroke="#2f3a45" stroke-width="1.2" points="339.3117,-455.5484 337.0366,-449.0484 334.7617,-455.5485 339.3117,-455.5484"/>
</g>
<!-- selected -->
<g id="node10" class="node">
<title>selected</title>
<path fill="#dad7ff" stroke="#2f3a45" stroke-width="1.8" d="M399.0565,-334.5004C399.0565,-334.5004 274.2079,-334.5004 274.2079,-334.5004 268.2079,-334.5004 262.2079,-328.5004 262.2079,-322.5004 262.2079,-322.5004 262.2079,-293.0996 262.2079,-293.0996 262.2079,-287.0996 268.2079,-281.0996 274.2079,-281.0996 274.2079,-281.0996 399.0565,-281.0996 399.0565,-281.0996 405.0565,-281.0996 411.0565,-287.0996 411.0565,-293.0996 411.0565,-293.0996 411.0565,-322.5004 411.0565,-322.5004 411.0565,-328.5004 405.0565,-334.5004 399.0565,-334.5004"/>
<text text-anchor="middle" x="336.6322" y="-311.7" font-family="Helvetica,sans-Serif" font-size="13.00" fill="#000000">Selected interpretable</text>
<text text-anchor="middle" x="336.6322" y="-296.1" font-family="Helvetica,sans-Serif" font-size="13.00" fill="#000000">QSPR formula</text>
</g>
<!-- loco&#45;&gt;selected -->
<g id="edge5" class="edge">
<title>loco&#45;&gt;selected</title>
<path fill="none" stroke="#2f3a45" stroke-width="1.2" d="M337.0366,-364.5279C337.0366,-364.5279 337.0366,-340.9675 337.0366,-340.9675"/>
<polygon fill="#2f3a45" stroke="#2f3a45" stroke-width="1.2" points="339.3117,-340.9675 337.0366,-334.4675 334.7617,-340.9676 339.3117,-340.9675"/>
</g>
<!-- benchmark -->
<g id="node11" class="node">
<title>benchmark</title>
<path fill="#fff3d9" stroke="#2f3a45" stroke-width="1.2" d="M644.1055,-540.1003C644.1055,-540.1003 486.8715,-540.1003 486.8715,-540.1003 480.8715,-540.1003 474.8715,-534.1003 474.8715,-528.1003 474.8715,-528.1003 474.8715,-483.4997 474.8715,-483.4997 474.8715,-477.4997 480.8715,-471.4997 486.8715,-471.4997 486.8715,-471.4997 644.1055,-471.4997 644.1055,-471.4997 650.1055,-471.4997 656.1055,-477.4997 656.1055,-483.4997 656.1055,-483.4997 656.1055,-528.1003 656.1055,-528.1003 656.1055,-534.1003 650.1055,-540.1003 644.1055,-540.1003"/>
<text text-anchor="middle" x="565.4885" y="-517.5" font-family="Helvetica,sans-Serif" font-size="13.00" fill="#000000">Benchmark ladder</text>
<text text-anchor="middle" x="565.4885" y="-501.9" font-family="Helvetica,sans-Serif" font-size="13.00" fill="#000000">null → Potts&#45;Guy → linear</text>
<text text-anchor="middle" x="565.4885" y="-486.3" font-family="Helvetica,sans-Serif" font-size="13.00" fill="#000000">→ QSPR → RF → RDKit RF</text>
</g>
<!-- selected&#45;&gt;benchmark -->
<g id="edge6" class="edge">
<title>selected&#45;&gt;benchmark</title>
<path fill="none" stroke="#2f3a45" stroke-width="1.2" d="M410.9472,-321.1C434.7364,-321.1 455.0366,-321.1 455.0366,-321.1 455.0366,-321.1 455.0366,-475.5 455.0366,-475.5 455.0366,-475.5 468.2832,-475.5 468.2832,-475.5"/>
<polygon fill="#2f3a45" stroke="#2f3a45" stroke-width="1.2" points="468.2832,-477.7751 474.7832,-475.5 468.2832,-473.2251 468.2832,-477.7751"/>
</g>
<!-- domain -->
<g id="node12" class="node">
<title>domain</title>
<path fill="#fff3d9" stroke="#2f3a45" stroke-width="1.2" d="M641.1299,-441.1003C641.1299,-441.1003 489.8471,-441.1003 489.8471,-441.1003 483.8471,-441.1003 477.8471,-435.1003 477.8471,-429.1003 477.8471,-429.1003 477.8471,-384.4997 477.8471,-384.4997 477.8471,-378.4997 483.8471,-372.4997 489.8471,-372.4997 489.8471,-372.4997 641.1299,-372.4997 641.1299,-372.4997 647.1299,-372.4997 653.1299,-378.4997 653.1299,-384.4997 653.1299,-384.4997 653.1299,-429.1003 653.1299,-429.1003 653.1299,-435.1003 647.1299,-441.1003 641.1299,-441.1003"/>
<text text-anchor="middle" x="565.4885" y="-418.5" font-family="Helvetica,sans-Serif" font-size="13.00" fill="#000000">Applicability domain</text>
<text text-anchor="middle" x="565.4885" y="-402.9" font-family="Helvetica,sans-Serif" font-size="13.00" fill="#000000">descriptor&#45;space coverage</text>
<text text-anchor="middle" x="565.4885" y="-387.3" font-family="Helvetica,sans-Serif" font-size="13.00" fill="#000000">error by domain</text>
</g>
<!-- selected&#45;&gt;domain -->
<g id="edge7" class="edge">
<title>selected&#45;&gt;domain</title>
<path fill="none" stroke="#2f3a45" stroke-width="1.2" d="M411.0382,-307.8C446.8126,-307.8 482.0366,-307.8 482.0366,-307.8 482.0366,-307.8 482.0366,-365.9524 482.0366,-365.9524"/>
<polygon fill="#2f3a45" stroke="#2f3a45" stroke-width="1.2" points="479.7617,-365.9524 482.0366,-372.4524 484.3117,-365.9525 479.7617,-365.9524"/>
</g>
<!-- ablation -->
<g id="node13" class="node">
<title>ablation</title>
<path fill="#fff3d9" stroke="#2f3a45" stroke-width="1.2" d="M633.1147,-342.1003C633.1147,-342.1003 497.8623,-342.1003 497.8623,-342.1003 491.8623,-342.1003 485.8623,-336.1003 485.8623,-330.1003 485.8623,-330.1003 485.8623,-285.4997 485.8623,-285.4997 485.8623,-279.4997 491.8623,-273.4997 497.8623,-273.4997 497.8623,-273.4997 633.1147,-273.4997 633.1147,-273.4997 639.1147,-273.4997 645.1147,-279.4997 645.1147,-285.4997 645.1147,-285.4997 645.1147,-330.1003 645.1147,-330.1003 645.1147,-336.1003 639.1147,-342.1003 633.1147,-342.1003"/>
<text text-anchor="middle" x="565.4885" y="-319.5" font-family="Helvetica,sans-Serif" font-size="13.00" fill="#000000">Interpretability analyses</text>
<text text-anchor="middle" x="565.4885" y="-303.9" font-family="Helvetica,sans-Serif" font-size="13.00" fill="#000000">ablation + partial effects</text>
<text text-anchor="middle" x="565.4885" y="-288.3" font-family="Helvetica,sans-Serif" font-size="13.00" fill="#000000">interaction effects</text>
</g>
<!-- selected&#45;&gt;ablation -->
<g id="edge8" class="edge">
<title>selected&#45;&gt;ablation</title>
<path fill="none" stroke="#2f3a45" stroke-width="1.2" d="M410.9353,-294.5C410.9353,-294.5 479.1402,-294.5 479.1402,-294.5"/>
<polygon fill="#2f3a45" stroke="#2f3a45" stroke-width="1.2" points="479.1403,-296.7751 485.6402,-294.5 479.1402,-292.2251 479.1403,-296.7751"/>
</g>
<!-- validation -->
<g id="node14" class="node">
<title>validation</title>
<path fill="#fff3d9" stroke="#2f3a45" stroke-width="1.2" d="M644.8517,-243.1003C644.8517,-243.1003 486.1253,-243.1003 486.1253,-243.1003 480.1253,-243.1003 474.1253,-237.1003 474.1253,-231.1003 474.1253,-231.1003 474.1253,-186.4997 474.1253,-186.4997 474.1253,-180.4997 480.1253,-174.4997 486.1253,-174.4997 486.1253,-174.4997 644.8517,-174.4997 644.8517,-174.4997 650.8517,-174.4997 656.8517,-180.4997 656.8517,-186.4997 656.8517,-186.4997 656.8517,-231.1003 656.8517,-231.1003 656.8517,-237.1003 650.8517,-243.1003 644.8517,-243.1003"/>
<text text-anchor="middle" x="565.4885" y="-220.5" font-family="Helvetica,sans-Serif" font-size="13.00" fill="#000000">Validation&#45;design sensitivity</text>
<text text-anchor="middle" x="565.4885" y="-204.9" font-family="Helvetica,sans-Serif" font-size="13.00" fill="#000000">5&#45;fold row&#45;wise CV</text>
<text text-anchor="middle" x="565.4885" y="-189.3" font-family="Helvetica,sans-Serif" font-size="13.00" fill="#000000">leave&#45;one&#45;reference&#45;out CV</text>
</g>
<!-- selected&#45;&gt;validation -->
<g id="edge9" class="edge">
<title>selected&#45;&gt;validation</title>
<path fill="none" stroke="#2f3a45" stroke-width="1.2" d="M405.0366,-281.017C405.0366,-256.695 405.0366,-224.6 405.0366,-224.6 405.0366,-224.6 467.5138,-224.6 467.5138,-224.6"/>
<polygon fill="#2f3a45" stroke="#2f3a45" stroke-width="1.2" points="467.5139,-226.8751 474.0138,-224.6 467.5138,-222.3251 467.5139,-226.8751"/>
</g>
<!-- diagnostics -->
<g id="node15" class="node">
<title>diagnostics</title>
<path fill="#fff3d9" stroke="#2f3a45" stroke-width="1.2" d="M642.5262,-144.1003C642.5262,-144.1003 488.4508,-144.1003 488.4508,-144.1003 482.4508,-144.1003 476.4508,-138.1003 476.4508,-132.1003 476.4508,-132.1003 476.4508,-87.4997 476.4508,-87.4997 476.4508,-81.4997 482.4508,-75.4997 488.4508,-75.4997 488.4508,-75.4997 642.5262,-75.4997 642.5262,-75.4997 648.5262,-75.4997 654.5262,-81.4997 654.5262,-87.4997 654.5262,-87.4997 654.5262,-132.1003 654.5262,-132.1003 654.5262,-138.1003 648.5262,-144.1003 642.5262,-144.1003"/>
<text text-anchor="middle" x="565.4885" y="-121.5" font-family="Helvetica,sans-Serif" font-size="13.00" fill="#000000">Supplementary diagnostics</text>
<text text-anchor="middle" x="565.4885" y="-105.9" font-family="Helvetica,sans-Serif" font-size="13.00" fill="#000000">coefficient stability</text>
<text text-anchor="middle" x="565.4885" y="-90.3" font-family="Helvetica,sans-Serif" font-size="13.00" fill="#000000">residuals + uncertainty</text>
</g>
<!-- selected&#45;&gt;diagnostics -->
<g id="edge10" class="edge">
<title>selected&#45;&gt;diagnostics</title>
<path fill="none" stroke="#2f3a45" stroke-width="1.2" d="M398.0366,-281.0968C398.0366,-227.0513 398.0366,-109.8 398.0366,-109.8 398.0366,-109.8 469.8695,-109.8 469.8695,-109.8"/>
<polygon fill="#2f3a45" stroke="#2f3a45" stroke-width="1.2" points="469.8695,-112.0751 476.3695,-109.8 469.8694,-107.5251 469.8695,-112.0751"/>
</g>
<!-- output -->
<g id="node16" class="node">
<title>output</title>
<path fill="#e2f5e8" stroke="#2f3a45" stroke-width="1.8" d="M893.2203,-342.1003C893.2203,-342.1003 708.4862,-342.1003 708.4862,-342.1003 702.4862,-342.1003 696.4862,-336.1003 696.4862,-330.1003 696.4862,-330.1003 696.4862,-285.4997 696.4862,-285.4997 696.4862,-279.4997 702.4862,-273.4997 708.4862,-273.4997 708.4862,-273.4997 893.2203,-273.4997 893.2203,-273.4997 899.2203,-273.4997 905.2203,-279.4997 905.2203,-285.4997 905.2203,-285.4997 905.2203,-330.1003 905.2203,-330.1003 905.2203,-336.1003 899.2203,-342.1003 893.2203,-342.1003"/>
<text text-anchor="middle" x="800.8532" y="-319.5" font-family="Helvetica,sans-Serif" font-size="13.00" fill="#000000">Benchmarked interpretable</text>
<text text-anchor="middle" x="800.8532" y="-303.9" font-family="Helvetica,sans-Serif" font-size="13.00" fill="#000000">skin permeability QSPR model</text>
<text text-anchor="middle" x="800.8532" y="-288.3" font-family="Helvetica,sans-Serif" font-size="13.00" fill="#000000">with defined applicability domain</text>
</g>
<!-- benchmark&#45;&gt;output -->
<g id="edge11" class="edge">
<title>benchmark&#45;&gt;output</title>
<path fill="none" stroke="#2f3a45" stroke-width="1.2" d="M656.2206,-505.8C722.5755,-505.8 801.0366,-505.8 801.0366,-505.8 801.0366,-505.8 801.0366,-348.789 801.0366,-348.789"/>
<polygon fill="#2f3a45" stroke="#2f3a45" stroke-width="1.2" points="803.3117,-348.7889 801.0366,-342.289 798.7617,-348.789 803.3117,-348.7889"/>
</g>
<!-- domain&#45;&gt;output -->
<g id="edge12" class="edge">
<title>domain&#45;&gt;output</title>
<path fill="none" stroke="#2f3a45" stroke-width="1.2" d="M648.0366,-372.1094C648.0366,-349.8148 648.0366,-325 648.0366,-325 648.0366,-325 689.8887,-325 689.8887,-325"/>
<polygon fill="#2f3a45" stroke="#2f3a45" stroke-width="1.2" points="689.8888,-327.2751 696.3887,-325 689.8887,-322.7251 689.8888,-327.2751"/>
</g>
<!-- ablation&#45;&gt;output -->
<g id="edge13" class="edge">
<title>ablation&#45;&gt;output</title>
<path fill="none" stroke="#2f3a45" stroke-width="1.2" d="M645.1723,-307.8C645.1723,-307.8 690.1338,-307.8 690.1338,-307.8"/>
<polygon fill="#2f3a45" stroke="#2f3a45" stroke-width="1.2" points="690.1339,-310.0751 696.6338,-307.8 690.1338,-305.5251 690.1339,-310.0751"/>
</g>
<!-- validation&#45;&gt;output -->
<g id="edge14" class="edge">
<title>validation&#45;&gt;output</title>
<path fill="none" stroke="#2f3a45" stroke-width="1.2" d="M651.0366,-243.4906C651.0366,-265.7852 651.0366,-290.6 651.0366,-290.6 651.0366,-290.6 689.8931,-290.6 689.8931,-290.6"/>
<polygon fill="#2f3a45" stroke="#2f3a45" stroke-width="1.2" points="689.8931,-292.8751 696.3931,-290.6 689.8931,-288.3251 689.8931,-292.8751"/>
</g>
<!-- diagnostics&#45;&gt;output -->
<g id="edge15" class="edge">
<title>diagnostics&#45;&gt;output</title>
<path fill="none" stroke="#2f3a45" stroke-width="1.2" d="M654.9422,-109.8C689.1198,-109.8 720.0366,-109.8 720.0366,-109.8 720.0366,-109.8 720.0366,-266.811 720.0366,-266.811"/>
<polygon fill="#2f3a45" stroke="#2f3a45" stroke-width="1.2" points="717.7617,-266.811 720.0366,-273.311 722.3117,-266.8111 717.7617,-266.811"/>
</g>
</g>
</svg>

